<svg id="Site_logo" xmlns="http://www.w3.org/2000/svg" width="184" height="48" viewBox="0 0 184 48">
  <rect id="Ret창ngulo_535" data-name="Ret창ngulo 535" width="184" height="48" fill="#fff" opacity="0"/>
  <g id="Grupo_610" data-name="Grupo 610">
    <path id="Caminho_115" data-name="Caminho 115" d="M93.748,33.212q0-5.918-2.863-9.34t-8.224-3.419a12.019,12.019,0,0,0-9.3,3.917A13.756,13.756,0,0,0,69.778,34q0,6.609,3.424,10.232a11.791,11.791,0,0,0,8.982,3.623,18.5,18.5,0,0,0,10.328-3.165l-1.178-1.759a14.2,14.2,0,0,1-8.617,2.781,9.593,9.593,0,0,1-7.508-3.036q-2.738-3.037-2.737-8.421H93.748Zm-21.163-1.1a11.319,11.319,0,0,1,3.271-7.055A9.457,9.457,0,0,1,82.549,22.6a7.757,7.757,0,0,1,6.119,2.5,10.872,10.872,0,0,1,2.385,7.017Z" transform="translate(-43.521 -12.756)" fill="#fff"/>
    <path id="Caminho_116" data-name="Caminho 116" d="M187.466,27.728a6.43,6.43,0,0,0,.94,3.916,3.792,3.792,0,0,0,3.186,1.213,7.656,7.656,0,0,0,3.452-.944v2.194a9.637,9.637,0,0,1-3.789.868q-6.371,0-6.372-6.941V0h2.583Z" transform="translate(-115.311)" fill="#fff"/>
    <path id="Caminho_117" data-name="Caminho 117" d="M150.015,27.728a6.432,6.432,0,0,0,.94,3.916,3.792,3.792,0,0,0,3.186,1.213,7.653,7.653,0,0,0,3.452-.944v2.194a9.638,9.638,0,0,1-3.789.868q-6.372,0-6.371-6.941V0h2.583Z" transform="translate(-91.952)" fill="#fff"/>
    <path id="Caminho_118" data-name="Caminho 118" d="M227.3,46.571a22.877,22.877,0,0,0,2.1,1.527,6.417,6.417,0,0,0,1.616.791c.437.125.879.23,1.325.321a5.587,5.587,0,0,0,1.1.138q4.015,0,4.015-2.777a1.993,1.993,0,0,0-1-1.606,15.9,15.9,0,0,0-3.219-1.585,23.433,23.433,0,0,1-3.145-1.515,10.382,10.382,0,0,1-2.032-1.514,6.3,6.3,0,0,1-1.239-1.94,6.341,6.341,0,0,1,2.223-7.449,10.3,10.3,0,0,1,6.21-1.883,11.824,11.824,0,0,1,3.6.61,24.223,24.223,0,0,1,4.079,1.778l-1.945,4.04a17.654,17.654,0,0,0-3.308-1.618,8.156,8.156,0,0,0-2.626-.516,4.535,4.535,0,0,0-2.752.78,2.611,2.611,0,0,0-.682.815,2.078,2.078,0,0,0-.252,1,2.439,2.439,0,0,0,.164.884,2.47,2.47,0,0,0,.442.746,7.278,7.278,0,0,0,1.3.827,20.649,20.649,0,0,0,2.033.918,32.52,32.52,0,0,1,3.269,1.56,10.245,10.245,0,0,1,2.084,1.47,5.415,5.415,0,0,1,1.767,4.2,6.158,6.158,0,0,1-.656,2.846,6.918,6.918,0,0,1-1.894,2.272A9.836,9.836,0,0,1,237,53.1a12.267,12.267,0,0,1-3.737.54,11.384,11.384,0,0,1-3.964-.746,22.78,22.78,0,0,1-4.318-2.215Z" transform="translate(-140.32 -18.137)" fill="#fff"/>
    <path id="Caminho_119" data-name="Caminho 119" d="M301.073,37.287V23.469a7.191,7.191,0,0,0-1.136-4.511,4.329,4.329,0,0,0-3.586-1.412q-3.357-.023-6.06,4.108V37.287h-4.9V3.7h4.9V15.251a9.325,9.325,0,0,1,2.979-1.516,12.711,12.711,0,0,1,3.636-.482q4.393,0,6.729,2.526t2.336,7.23V37.287Z" transform="translate(-177.997 -2.311)" fill="#fff"/>
    <path id="Caminho_120" data-name="Caminho 120" d="M448.94,35.989a10.975,10.975,0,0,0-2.045-3.626,10.5,10.5,0,0,0-3.472-2.4,11.136,11.136,0,0,0-4.482-.884,20.956,20.956,0,0,0-2.21.2,13.918,13.918,0,0,0-1.919.414,8.691,8.691,0,0,0-1.666.676,9.284,9.284,0,0,0-1.478.988V29.608h-4.9V63.294h4.9V51.667a8.788,8.788,0,0,0,2.8,1.526,10.55,10.55,0,0,0,3.511.448,11.4,11.4,0,0,0,4.772-.987,11.844,11.844,0,0,0,3.813-2.754,13.168,13.168,0,0,0,2.285-4.133,15.65,15.65,0,0,0,.821-5.164,14.013,14.013,0,0,0-.732-4.615m-4.772,8.276a10.19,10.19,0,0,1-1.414,2.857l.051-.046a7.938,7.938,0,0,1-2.1,1.618,5.292,5.292,0,0,1-2.55.653,7.428,7.428,0,0,1-3.6-.929,8.825,8.825,0,0,1-2.892-2.7v-8.7A5.081,5.081,0,0,1,433,35.553a9.9,9.9,0,0,1,1.779-1.067,11.087,11.087,0,0,1,2.021-.712,19.347,19.347,0,0,1,2.07-.4,6.161,6.161,0,0,1,2.3.528,5.357,5.357,0,0,1,1.817,1.285h-.024a6.542,6.542,0,0,1,1.313,2.364,9.994,9.994,0,0,1,.454,3.1,11.5,11.5,0,0,1-.555,3.616" transform="translate(-266.174 -18.137)" fill="#fff"/>
    <path id="Caminho_121" data-name="Caminho 121" d="M373.639,36.333a10.973,10.973,0,0,0-2.423-3.88,11.729,11.729,0,0,0-8.812-3.374,14.039,14.039,0,0,0-5.063.9,12.5,12.5,0,0,0-4.052,2.479,11.527,11.527,0,0,0-2.563,3.949,13.774,13.774,0,0,0-.9,5.1,13.349,13.349,0,0,0,.833,4.844,11.564,11.564,0,0,0,2.424,3.833,10.746,10.746,0,0,0,3.952,2.594,14.206,14.206,0,0,0,5.113.873,13.863,13.863,0,0,0,5.125-.907,10.66,10.66,0,0,0,3.889-2.583,11.9,11.9,0,0,0,2.437-3.891,13.382,13.382,0,0,0,.846-4.854,14.708,14.708,0,0,0-.809-5.074m-4.671,8.459a7.3,7.3,0,0,1-1.413,2.56,6.858,6.858,0,0,1-2.273,1.457,8.11,8.11,0,0,1-3.055.54,7.077,7.077,0,0,1-5.378-2.066,8.008,8.008,0,0,1-2.02-5.739,8.5,8.5,0,0,1,2.02-6.106,7.261,7.261,0,0,1,5.479-2.065,6.777,6.777,0,0,1,5.3,2.041,8.594,8.594,0,0,1,1.844,5.946,10.87,10.87,0,0,1-.506,3.432" transform="translate(-218.186 -18.137)" fill="#fff"/>
    <path id="Caminho_122" data-name="Caminho 122" d="M22.061,45.434a19.137,19.137,0,0,1-9.01,2.424A12.657,12.657,0,0,1,3.592,44.2,13.1,13.1,0,0,1,0,34.615,13.666,13.666,0,0,1,4.042,24.421a14.2,14.2,0,0,1,10.385-3.968,14.881,14.881,0,0,1,7.8,2.067L20.8,24.333A13.572,13.572,0,0,0,14.034,22.6a10.8,10.8,0,0,0-8.2,3.3,11.916,11.916,0,0,0-3.143,8.561,11.5,11.5,0,0,0,2.876,8.165,9.891,9.891,0,0,0,7.593,3.088,13.425,13.425,0,0,0,7.522-2.093Z" transform="translate(0 -12.756)" fill="#fff"/>
    <rect id="Ret창ngulo_536" data-name="Ret창ngulo 536" width="1.074" height="6.536" transform="translate(36.91 41.342)" fill="#fff"/>
    <path id="Caminho_123" data-name="Caminho 123" d="M111.093,116.4h-1.074V111.74l-1.989,3.287h-.13l-1.989-3.3V116.4h-1.074v-6.536h1.158l1.97,3.268,1.98-3.268h1.149Z" transform="translate(-65.386 -68.521)" fill="#fff"/>
    <path id="Caminho_124" data-name="Caminho 124" d="M129.936,112.011a2.123,2.123,0,0,1-2.166,2.148h-1.335V116.4h-1.074v-6.536h2.409a2.117,2.117,0,0,1,2.166,2.148m-1.074,0a1.077,1.077,0,0,0-1.092-1.139h-1.335v2.279h1.335a1.083,1.083,0,0,0,1.092-1.14" transform="translate(-78.187 -68.521)" fill="#fff"/>
    <path id="Caminho_125" data-name="Caminho 125" d="M139.408,112.931a3.39,3.39,0,1,1,3.39,3.389,3.366,3.366,0,0,1-3.39-3.389m5.705,0a2.316,2.316,0,1,0-2.316,2.344,2.282,2.282,0,0,0,2.316-2.344" transform="translate(-86.948 -68.32)" fill="#fff"/>
    <path id="Caminho_126" data-name="Caminho 126" d="M162.8,114.019h-1.27V116.4h-1.074v-6.536h2.615a2.092,2.092,0,0,1,2.1,2.1,2.062,2.062,0,0,1-1.3,1.9l1.484,2.54h-1.176Zm-1.27-.962h1.54a1.095,1.095,0,0,0,0-2.185h-1.54Z" transform="translate(-100.073 -68.521)" fill="#fff"/>
    <path id="Caminho_127" data-name="Caminho 127" d="M179.088,110.891h-1.84V116.4h-1.074v-5.509h-1.849v-1.027h4.762Z" transform="translate(-108.727 -68.521)" fill="#fff"/>
    <path id="Caminho_128" data-name="Caminho 128" d="M191.068,115.083h-2.783l-.457,1.317h-1.167l2.372-6.536h1.289l2.362,6.536h-1.158Zm-.355-1.008-1.037-2.95-1.036,2.95Z" transform="translate(-116.42 -68.521)" fill="#fff"/>
    <path id="Caminho_129" data-name="Caminho 129" d="M210.647,113.132a3.144,3.144,0,0,1-3.128,3.268h-2.568v-6.536h2.568a3.138,3.138,0,0,1,3.128,3.268m-1.036,0a2.082,2.082,0,0,0-2.092-2.241h-1.494v4.482h1.494a2.087,2.087,0,0,0,2.092-2.24" transform="translate(-127.827 -68.521)" fill="#fff"/>
    <path id="Caminho_130" data-name="Caminho 130" d="M222.249,112.931a3.39,3.39,0,1,1,3.389,3.389,3.366,3.366,0,0,1-3.389-3.389m5.705,0a2.316,2.316,0,1,0-2.316,2.344,2.282,2.282,0,0,0,2.316-2.344" transform="translate(-138.615 -68.32)" fill="#fff"/>
    <path id="Caminho_131" data-name="Caminho 131" d="M241.731,114.714l.925-.542a1.571,1.571,0,0,0,1.625,1.1c.849,0,1.214-.383,1.214-.859,0-.579-.514-.775-1.485-1.074-1.018-.308-2.008-.682-2.008-1.914a1.934,1.934,0,0,1,2.1-1.886,2.426,2.426,0,0,1,2.278,1.438l-.906.523a1.408,1.408,0,0,0-1.372-.915c-.626,0-1.027.318-1.027.812s.364.719,1.316,1.018c1.083.345,2.176.682,2.176,1.979,0,1.2-.953,1.924-2.316,1.924a2.487,2.487,0,0,1-2.521-1.606" transform="translate(-150.767 -68.32)" fill="#fff"/>
    <path id="Caminho_132" data-name="Caminho 132" d="M268.691,112.011a2.123,2.123,0,0,1-2.166,2.148H265.19V116.4h-1.074v-6.536h2.409a2.117,2.117,0,0,1,2.166,2.148m-1.074,0a1.078,1.078,0,0,0-1.093-1.139H265.19v2.279h1.335a1.083,1.083,0,0,0,1.093-1.14" transform="translate(-164.728 -68.521)" fill="#fff"/>
    <path id="Caminho_133" data-name="Caminho 133" d="M280.239,115.083h-2.783L277,116.4h-1.167l2.372-6.536h1.289l2.363,6.536H280.7Zm-.355-1.008-1.036-2.95-1.036,2.95Z" transform="translate(-172.034 -68.521)" fill="#fff"/>
    <path id="Caminho_134" data-name="Caminho 134" d="M296.466,114.019H295.2V116.4h-1.073v-6.536h2.615a2.092,2.092,0,0,1,2.1,2.1,2.061,2.061,0,0,1-1.3,1.9l1.485,2.54h-1.177Zm-1.27-.962h1.541a1.095,1.095,0,0,0,0-2.185H295.2Z" transform="translate(-183.442 -68.521)" fill="#fff"/>
    <path id="Caminho_135" data-name="Caminho 135" d="M312.551,115.083h-2.783l-.458,1.317h-1.167l2.372-6.536H311.8l2.363,6.536h-1.158Zm-.355-1.008-1.036-2.95-1.036,2.95Z" transform="translate(-192.188 -68.521)" fill="#fff"/>
    <path id="Caminho_136" data-name="Caminho 136" d="M331.606,113.267a2.988,2.988,0,0,1-3.2,3.054,3.39,3.39,0,1,1-.056-6.779,3.279,3.279,0,0,1,2.848,1.55l-.925.532a2.175,2.175,0,0,0-1.923-1.037,2.344,2.344,0,1,0,.065,4.688,1.961,1.961,0,0,0,2.11-1.494h-2.185v-.962h3.269Z" transform="translate(-202.65 -68.32)" fill="#fff"/>
    <path id="Caminho_137" data-name="Caminho 137" d="M345.395,114.234v-4.37h1.074v4.3a1.4,1.4,0,0,0,2.8,0v-4.3h1.074v4.37a2.482,2.482,0,0,1-4.949,0" transform="translate(-215.42 -68.521)" fill="#fff"/>
    <path id="Caminho_138" data-name="Caminho 138" d="M364.545,115.083h-2.783L361.3,116.4h-1.167l2.372-6.536H363.8l2.363,6.536H365Zm-.355-1.008-1.037-2.95-1.037,2.95Z" transform="translate(-224.615 -68.521)" fill="#fff"/>
    <path id="Caminho_139" data-name="Caminho 139" d="M377.934,113.8v2.6h-1.074v-2.6l-2.278-3.94H375.8l1.6,2.895,1.587-2.895h1.224Z" transform="translate(-233.625 -68.521)" fill="#fff"/>
  </g>
</svg>
